<?xml version="1.0" encoding="UTF-8"?>
<!DOCTYPE svg PUBLIC "-//W3C//DTD SVG 1.1//EN" "http://www.w3.org/Graphics/SVG/1.1/DTD/svg11.dtd">
<!-- Creator: CorelDRAW 2020 (64-Bit) -->
<svg xmlns="http://www.w3.org/2000/svg" xml:space="preserve" width="41.9316mm" height="13.4075mm" version="1.1" style="shape-rendering:geometricPrecision; text-rendering:geometricPrecision; image-rendering:optimizeQuality; fill-rule:evenodd; clip-rule:evenodd"
viewBox="0 0 800.3 255.89"
 xmlns:xlink="http://www.w3.org/1999/xlink"
 xmlns:xodm="http://www.corel.com/coreldraw/odm/2003">
 <defs>
  <style type="text/css">
   <![CDATA[
    .fil2 {fill:#1A1A1A}
    .fil1 {fill:#1A1A1A;fill-rule:nonzero}
    .fil0 {fill:url(#id0)}
   ]]>
  </style>
  <linearGradient id="id0" gradientUnits="userSpaceOnUse" x1="16.08" y1="240.54" x2="205.37" y2="101.12">
   <stop offset="0" style="stop-opacity:1; stop-color:#4A32E3"/>
   <stop offset="1" style="stop-opacity:1; stop-color:#875FDA"/>
  </linearGradient>
 </defs>
 <g id="Слой_x0020_1">
  <metadata id="CorelCorpID_0Corel-Layer"/>
  <g id="_2400048576848">
   <path class="fil0" d="M171.61 50.75l0.06 0.08c7,9.42 14.71,18.44 21.17,28.25 9.41,14.29 17.09,29.16 20.83,45.97 8.95,40.25 -4.4,80.48 -36.65,106.45 -27.9,22.47 -65.44,30.24 -99.82,19.88 -22.65,-6.83 -42.52,-20.83 -56.51,-39.91 -14.11,-19.24 -21.52,-43.14 -20.61,-66.99 0.35,-9.17 1.87,-18.28 4.52,-27.07 6.36,-21.09 19.61,-40.67 32.86,-58.06 0.15,-0.2 0.31,-0.4 0.47,-0.61l35.39 -44.51c6.75,-8.5 16.4,-13.46 27.24,-14.01 5.54,-0.28 9.31,-0.29 15.13,0 14.37,0.72 21.72,7.67 31.28,19.65l24.64 30.88zm-39.66 10.06l-26.3 32.96c-11.93,14.83 -25.38,32.29 -29.29,45.26 -5.33,17.68 4.88,35.29 22.36,40.55 2.52,0.76 6.89,1.58 9.79,1.47 13.97,-0.53 25.82,-9.04 30.51,-21.17 1.49,-3.86 2.45,-8.03 2.28,-12.5 -0.34,-8.79 -4.58,-17.58 -9.05,-24.74 -3.48,-5.56 -7.33,-10.38 -10.53,-14.19l-0.1 -0.12 10.46 -13.3c4.77,6.05 9.63,12.49 13.81,19.06 4.21,6.76 7.57,13.28 9.49,19.22l0.02 0.06c5.73,18.04 0.67,35.31 -10.13,47.32 -4.01,4.46 -8.8,8.23 -14.14,11.01 -7.09,3.71 -15.13,5.71 -23.43,5.6 -4.51,-0.06 -9.07,-0.66 -13.65,-2.04 -4.51,-1.36 -8.75,-3.3 -12.57,-5.75 -5.29,-3.39 -9.83,-7.74 -13.49,-12.73 -6.28,-8.57 -9.92,-19.02 -9.5,-30.16 0.15,-4 0.85,-8.16 2.13,-12.43 5.43,-18.03 24.7,-41.62 40.54,-61.01l30.92 -39.07c8.05,10.25 16.05,20.37 24.25,30.5 6.69,8.26 13.38,16.79 19.28,25.77 7.98,12.13 14.75,24.82 17.93,39.11 7.25,32.61 -3.33,64.87 -29.46,85.91 -22.6,18.2 -53.06,24.59 -80.93,16.19 -18.36,-5.53 -34.48,-16.89 -45.82,-32.35 -11.4,-15.54 -17.37,-34.73 -16.63,-54 0.29,-7.43 1.51,-14.79 3.66,-21.91 5.52,-18.3 18.01,-36.41 29.52,-51.51 0.07,-0.1 0.14,-0.18 0.21,-0.27l35.39 -44.51c3.07,-3.86 7.22,-6 12.15,-6.25 2.17,-0.11 4.35,-0.07 6.52,-0.07 2.76,0 4.97,0.02 7.68,0l-48.74 61.16c-11.7,15.35 -22.4,31.54 -26.83,46.24 -1.77,5.89 -2.73,11.84 -2.96,17.76 -0.62,16.08 4.41,31.25 13.43,43.55 5.96,8.13 13.62,15.05 22.59,20.11 4.56,2.57 9.49,4.62 14.63,6.17 12.15,3.66 24.65,3.9 36.36,1.15 9.74,-2.29 18.93,-6.67 26.88,-12.64 7.68,-5.77 14.13,-13.23 18.95,-21.74 7.79,-13.78 11.37,-30.58 7.21,-49.37 -2.77,-12.2 -8.69,-23.25 -15.59,-33.59 -8.84,-13.57 -20.17,-25.78 -29.79,-38.73zm-13.86 80.39c0.56,1.29 1.04,2.6 1.44,3.91 0.71,2.36 0.69,4.62 0.03,6.63 -0.93,2.85 -3.07,5.19 -5.7,6.59 -1.32,0.7 -2.78,1.16 -4.3,1.33 -1.4,0.16 -2.86,0.1 -4.3,-0.28 -1.42,-0.37 -2.74,-0.98 -3.91,-1.77 -1.34,-0.9 -2.44,-2.1 -3.32,-3.43 -0.74,-1.11 -1.27,-2.35 -1.58,-3.7 -0.17,-0.75 -0.31,-1.52 -0.28,-2.34 0.16,-4.14 3.67,-10.73 5.93,-14.32 1.9,-3.03 4.01,-5.87 6.02,-8.41l0.24 0.31c3.52,4.46 7.29,9.86 9.71,15.48z"/>
   <path class="fil1" d="M326.51 75.99c-27.33,0 -44.4,16.67 -44.4,51.18 0,34.51 17.06,51.18 44.4,51.18l21.52 0c27.14,0 44.39,-16.67 44.39,-51.18 0,-34.51 -17.25,-51.18 -44.39,-51.18l-21.52 0zm19.58 19.77c17.64,0 25.59,9.3 25.59,31.41 0,22.1 -7.95,31.21 -25.59,31.21l-17.64 0c-17.84,0 -25.59,-9.11 -25.59,-31.21 0,-22.1 7.75,-31.41 25.59,-31.41l17.64 0zm75.02 -19.77l0 19.77 61.26 0c11.24,0 15.7,6.2 15.7,14.15l0 7.75 -48.66 0c-25.2,0 -34.51,10.86 -34.51,29.46 0,19.39 10.08,31.21 34.31,31.21l47.88 0c17.25,0 21.13,-5.82 21.13,-20.55l0 -48.08c0,-19.39 -10.08,-33.73 -35.67,-33.73l-61.45 0zm71.34 82.39l-43.04 0c-10.27,0 -14.34,-4.85 -14.34,-12.41 0,-7.56 3.88,-12.02 14.73,-12.02l48.27 0 0 19.19c0,3.68 -1.55,5.24 -5.62,5.24zm83.36 -82.39c-23.84,0 -33.34,11.44 -33.34,29.85 0,15.7 6.98,29.85 35.28,29.85l24.23 0c10.28,0 14.54,3.3 14.54,11.44 0,7.95 -3.88,11.25 -13.38,11.25l-59.52 0 0 19.97 59.52 0c24.04,0 33.54,-12.8 33.54,-31.02 0,-15.9 -7.17,-28.88 -35.48,-28.88l-24.04 0c-11.44,0 -14.54,-3.88 -14.54,-11.05 0,-7.75 3.88,-11.63 13.38,-11.63l56.61 0 0 -19.77 -56.8 0zm85.1 0l0 102.36 20.55 0 0 -102.36 -20.55 0zm78.51 0c-23.85,0 -33.34,11.44 -33.34,29.85 0,15.7 6.98,29.85 35.28,29.85l24.23 0c10.27,0 14.54,3.3 14.54,11.44 0,7.95 -3.88,11.25 -13.38,11.25l-59.51 0 0 19.97 59.51 0c24.04,0 33.54,-12.8 33.54,-31.02 0,-15.9 -7.17,-28.88 -35.47,-28.88l-24.04 0c-11.44,0 -14.54,-3.88 -14.54,-11.05 0,-7.75 3.88,-11.63 13.38,-11.63l56.61 0 0 -19.77 -56.8 0z"/>
   <path class="fil2" d="M314.23 222.28c0.73,0 1.33,0.6 1.33,1.33 0,0.18 -0.04,0.35 -0.1,0.51 -1.19,3.24 -4.29,5.4 -7.74,5.4l-7.9 0c-4.54,0 -8.24,-3.69 -8.24,-8.24l0 -5.87c0,-4.54 3.7,-8.24 8.24,-8.24l7.9 0c3.48,0 6.6,2.2 7.76,5.48 0.25,0.69 -0.12,1.45 -0.81,1.69 -0.69,0.24 -1.44,-0.12 -1.69,-0.81 -0.79,-2.22 -2.91,-3.71 -5.27,-3.71l-7.9 0c-3.08,0 -5.59,2.51 -5.59,5.59l0 5.86c0,3.08 2.51,5.59 5.59,5.59l7.9 0c2.35,0 4.47,-1.49 5.26,-3.71 0.19,-0.53 0.69,-0.88 1.25,-0.88zm50 -2.73c1.64,1.16 2.65,3.05 2.65,5.1l0 3.54c0,0.73 -0.59,1.32 -1.32,1.32 -0.73,0 -1.33,-0.59 -1.33,-1.32l0 -3.54c0,-1.98 -1.62,-3.6 -3.6,-3.6l-10.37 0 0 7.15c0,0.73 -0.59,1.33 -1.32,1.33 -0.73,0 -1.33,-0.6 -1.33,-1.33l0 -8.47c0,-0.73 0.6,-1.32 1.33,-1.32l11 0c2.37,0 4.29,-1.93 4.29,-4.29 0,-2.36 -1.93,-4.29 -4.29,-4.29l-11 0c-0.73,0 -1.33,-0.59 -1.33,-1.33 0,-0.73 0.6,-1.32 1.33,-1.32l11 0c3.83,0 6.94,3.11 6.94,6.94 0,2.15 -0.99,4.14 -2.65,5.44zm49.78 9.1c-0.01,0.03 -0.02,0.06 -0.04,0.08 -0.01,0.03 -0.03,0.05 -0.04,0.08 -0.01,0.01 -0.01,0.02 -0.02,0.02 -0.06,0.1 -0.11,0.18 -0.17,0.23 -0.03,0.04 -0.06,0.06 -0.13,0.13 -0.07,0.06 -0.15,0.11 -0.23,0.15 -0.06,0.05 -0.13,0.08 -0.21,0.1 -0.13,0.04 -0.26,0.06 -0.4,0.06 -0.14,0 -0.26,-0.02 -0.39,-0.06 -0.04,-0.01 -0.09,-0.02 -0.13,-0.05 -0.03,-0.01 -0.05,-0.03 -0.08,-0.04 -0.09,-0.05 -0.18,-0.1 -0.28,-0.19 -0.04,-0.04 -0.06,-0.06 -0.08,-0.08 -0.08,-0.08 -0.13,-0.16 -0.19,-0.26 -0.01,-0.01 -0.01,-0.02 -0.01,-0.02 -0.02,-0.03 -0.03,-0.06 -0.05,-0.08 -0.01,-0.03 -0.02,-0.05 -0.03,-0.08l-7.14 -18.71c-0.06,-0.12 -0.17,-0.13 -0.28,-0.11 -0.15,0.02 -0.23,0.1 -0.24,0.25l-2.28 18.28c-0.09,0.73 -0.75,1.24 -1.48,1.15 -0.73,-0.09 -1.24,-0.75 -1.15,-1.48l2.28 -18.29c0.16,-1.31 1.16,-2.33 2.46,-2.53 1.3,-0.2 2.57,0.47 3.13,1.7l5.94 15.57 5.94 -15.55c0.56,-1.22 1.81,-1.93 3.14,-1.72 1.3,0.2 2.3,1.23 2.46,2.53l2.29 18.29c0.09,0.73 -0.42,1.39 -1.15,1.48 -0.73,0.09 -1.39,-0.42 -1.48,-1.15l-2.29 -18.28c-0.02,-0.14 -0.09,-0.23 -0.25,-0.25 -0.14,-0.02 -0.23,0.02 -0.29,0.14l-7.13 18.68zm50.22 -11.32c0.73,0 1.32,0.6 1.32,1.33 0,0.73 -0.59,1.32 -1.32,1.32l-4.24 0c-0.73,0 -1.33,-0.59 -1.33,-1.32 0,-0.73 0.59,-1.33 1.33,-1.33l4.24 0zm50.45 -0.31c3.27,0 5.93,2.66 5.93,5.93l0 0.65c0,3.27 -2.66,5.92 -5.93,5.92l-11.14 0c-3.27,0 -5.92,-2.66 -5.92,-5.92l0 -0.65c0,-0.73 0.6,-1.33 1.33,-1.33 0.73,0 1.32,0.6 1.32,1.33l0 0.65c0,1.8 1.47,3.28 3.28,3.28l11.14 0c1.81,0 3.28,-1.47 3.28,-3.28l0 -0.65c0,-1.81 -1.47,-3.28 -3.28,-3.28l-10.44 0c-3.27,0 -5.93,-2.65 -5.93,-5.92l0 -0.65c0,-3.27 2.66,-5.92 5.93,-5.92l9.06 0c3.27,0 5.92,2.66 5.92,5.92 0,0.73 -0.59,1.33 -1.32,1.33 -0.73,0 -1.33,-0.6 -1.33,-1.33 0,-1.8 -1.47,-3.28 -3.27,-3.28l-9.06 0c-1.81,0 -3.28,1.47 -3.28,3.28l0 0.65c0,1.81 1.47,3.28 3.28,3.28l10.44 0zm49.54 3.1l0 8.07c0,0.73 -0.59,1.33 -1.32,1.33 -0.73,0 -1.33,-0.59 -1.33,-1.33l0 -8.07 -8.63 -10.8c-0.46,-0.57 -0.36,-1.41 0.21,-1.86 0.57,-0.46 1.41,-0.36 1.86,0.21l7.88 9.86 7.87 -9.86c0.46,-0.57 1.29,-0.67 1.87,-0.21 0.57,0.46 0.66,1.29 0.21,1.86l-8.63 10.8zm57.03 -3.1c3.27,0 5.93,2.66 5.93,5.93l0 0.65c0,3.27 -2.66,5.92 -5.93,5.92l-11.14 0c-3.27,0 -5.92,-2.66 -5.92,-5.92l0 -0.65c0,-0.73 0.6,-1.33 1.33,-1.33 0.73,0 1.32,0.6 1.32,1.33l0 0.65c0,1.8 1.47,3.28 3.28,3.28l11.14 0c1.81,0 3.28,-1.47 3.28,-3.28l0 -0.65c0,-1.81 -1.47,-3.28 -3.28,-3.28l-10.44 0c-3.27,0 -5.93,-2.65 -5.93,-5.92l0 -0.65c0,-3.27 2.66,-5.92 5.93,-5.92l9.06 0c3.27,0 5.92,2.66 5.92,5.92 0,0.73 -0.59,1.33 -1.32,1.33 -0.73,0 -1.33,-0.6 -1.33,-1.33 0,-1.8 -1.47,-3.28 -3.27,-3.28l-9.06 0c-1.81,0 -3.28,1.47 -3.28,3.28l0 0.65c0,1.81 1.47,3.28 3.28,3.28l10.44 0zm46.79 -5.01c0.73,0 1.33,0.6 1.33,1.33l0 14.85c0,0.73 -0.6,1.33 -1.33,1.33 -0.73,0 -1.33,-0.6 -1.33,-1.33l0 -14.85c0,-0.73 0.6,-1.33 1.33,-1.33zm9.46 -4.84c0.73,0 1.32,0.6 1.32,1.33 0,0.73 -0.59,1.32 -1.32,1.32l-18.92 0c-0.73,0 -1.33,-0.59 -1.33,-1.32 0,-0.73 0.6,-1.33 1.33,-1.33l18.92 0zm52.26 19.7c0.73,0 1.33,0.59 1.33,1.32 0,0.73 -0.6,1.33 -1.33,1.33l-13.42 0c-3.02,0 -5.48,-2.45 -5.48,-5.47l0 -11.4c0,-3.02 2.46,-5.48 5.48,-5.48l12.04 0c0.73,0 1.33,0.6 1.33,1.33 0,0.73 -0.6,1.32 -1.33,1.32l-12.04 0c-1.56,0 -2.82,1.27 -2.82,2.83l0 11.4c0,1.56 1.27,2.82 2.82,2.82l13.42 0zm-12.73 -9.85l6.34 0c0.73,0 1.32,0.6 1.32,1.33 0,0.73 -0.59,1.32 -1.32,1.32l-6.34 0c-0.73,0 -1.33,-0.59 -1.33,-1.32 0,-0.73 0.6,-1.33 1.33,-1.33zm61.19 11.63c-0.01,0.03 -0.02,0.06 -0.04,0.08 -0.01,0.03 -0.03,0.05 -0.04,0.08 -0,0.01 -0.01,0.02 -0.01,0.02 -0.06,0.1 -0.11,0.18 -0.17,0.23 -0.03,0.04 -0.06,0.06 -0.14,0.13 -0.07,0.06 -0.15,0.11 -0.23,0.15 -0.06,0.05 -0.13,0.08 -0.21,0.1 -0.13,0.04 -0.26,0.06 -0.4,0.06 -0.14,0 -0.26,-0.02 -0.39,-0.06 -0.05,-0.01 -0.09,-0.02 -0.13,-0.05 -0.03,-0.01 -0.05,-0.03 -0.08,-0.04 -0.09,-0.05 -0.18,-0.1 -0.28,-0.19 -0.04,-0.04 -0.06,-0.06 -0.08,-0.08 -0.08,-0.08 -0.13,-0.16 -0.19,-0.26 -0.01,-0.01 -0.01,-0.02 -0.01,-0.02 -0.02,-0.03 -0.03,-0.06 -0.05,-0.08 -0.02,-0.03 -0.03,-0.05 -0.04,-0.08l-7.14 -18.71c-0.06,-0.12 -0.17,-0.13 -0.28,-0.11 -0.15,0.02 -0.23,0.1 -0.25,0.25l-2.28 18.28c-0.09,0.73 -0.75,1.24 -1.48,1.15 -0.73,-0.09 -1.24,-0.75 -1.15,-1.48l2.28 -18.29c0.16,-1.31 1.16,-2.33 2.46,-2.53 1.3,-0.2 2.57,0.47 3.13,1.7l5.94 15.57 5.94 -15.55c0.56,-1.22 1.81,-1.93 3.14,-1.72 1.3,0.2 2.3,1.23 2.46,2.53l2.29 18.29c0.09,0.73 -0.42,1.39 -1.15,1.48 -0.73,0.09 -1.39,-0.42 -1.48,-1.15l-2.29 -18.28c-0.02,-0.14 -0.09,-0.23 -0.24,-0.25 -0.15,-0.02 -0.24,0.02 -0.29,0.14l-7.13 18.68z"/>
  </g>
 </g>
</svg>
