<?xml version="1.0" encoding="UTF-8"?>
<!DOCTYPE svg PUBLIC "-//W3C//DTD SVG 1.1//EN" "http://www.w3.org/Graphics/SVG/1.1/DTD/svg11.dtd">
<!-- Creator: CorelDRAW 2020 (64-Bit) -->
<svg xmlns="http://www.w3.org/2000/svg" xml:space="preserve" width="2.7591mm" height="5.4091mm" version="1.1" style="shape-rendering:geometricPrecision; text-rendering:geometricPrecision; image-rendering:optimizeQuality; fill-rule:evenodd; clip-rule:evenodd"
viewBox="0 0 5.19 10.18"
 xmlns:xlink="http://www.w3.org/1999/xlink"
 xmlns:xodm="http://www.corel.com/coreldraw/odm/2003">
 <defs>
  <style type="text/css">
   <![CDATA[
    .fil0 {fill:#4D4D4D;fill-rule:nonzero}
   ]]>
  </style>
 </defs>
 <g id="Слой_x0020_1">
  <metadata id="CorelCorpID_0Corel-Layer"/>
  <path class="fil0" d="M5.19 1.83l0 5.76c0,1.44 -1.16,2.6 -2.6,2.6 -1.43,-0 -2.6,-1.17 -2.6,-2.6l0 -5.78c0,-0.99 0.81,-1.8 1.8,-1.8 1,0 1.8,0.81 1.8,1.8l0 5.81c0,0.58 -0.48,1.06 -1.06,1.06 -0.57,0 -1.06,-0.49 -1.06,-1.06l0 -5.4c0,-0.16 0.13,-0.29 0.29,-0.29 0.16,0 0.29,0.13 0.29,0.29l0 5.4c0,0.25 0.22,0.48 0.48,0.48 0.26,0 0.48,-0.21 0.48,-0.48l0 -5.81c0,-0.67 -0.55,-1.22 -1.22,-1.22 -0.67,0 -1.22,0.55 -1.22,1.22l0 5.78c0,1.11 0.9,2.01 2.01,2.01 1.11,0 2.01,-0.9 2.01,-2.01l0 -5.76c0,-0.16 0.13,-0.29 0.29,-0.29 0.16,0 0.29,0.13 0.29,0.29z"/>
 </g>
</svg>
