<?xml version="1.0" encoding="UTF-8"?>
<!DOCTYPE svg PUBLIC "-//W3C//DTD SVG 1.1//EN" "http://www.w3.org/Graphics/SVG/1.1/DTD/svg11.dtd">
<!-- Creator: CorelDRAW 2020 (64-Bit) -->
<svg xmlns="http://www.w3.org/2000/svg" xml:space="preserve" width="32.4606mm" height="28.8604mm" version="1.1" style="shape-rendering:geometricPrecision; text-rendering:geometricPrecision; image-rendering:optimizeQuality; fill-rule:evenodd; clip-rule:evenodd"
viewBox="0 0 715.57 636.21"
 xmlns:xlink="http://www.w3.org/1999/xlink"
 xmlns:xodm="http://www.corel.com/coreldraw/odm/2003">
 <defs>
  <style type="text/css">
   <![CDATA[
    .fil0 {fill:#FEFEFE}
    .fil1 {fill:#FEFEFE;fill-rule:nonzero}
   ]]>
  </style>
 </defs>
 <g id="Слой_x0020_1">
  <metadata id="CorelCorpID_0Corel-Layer"/>
  <g id="_2400040773984">
   <path class="fil0" d="M445.36 70.08l0.08 0.11c9.67,13.01 20.32,25.46 29.23,39.01 12.99,19.74 23.6,40.26 28.77,63.48 12.36,55.59 -6.08,111.14 -50.62,147 -38.53,31.02 -90.36,41.75 -137.84,27.45 -31.27,-9.42 -58.72,-28.76 -78.03,-55.11 -19.48,-26.57 -29.72,-59.57 -28.46,-92.51 0.49,-12.66 2.58,-25.24 6.24,-37.37 8.78,-29.13 27.08,-56.17 45.38,-80.18 0.21,-0.28 0.43,-0.56 0.65,-0.83l48.87 -61.47c9.33,-11.73 22.64,-18.58 37.61,-19.35 7.65,-0.39 12.85,-0.4 20.9,0 19.85,0.99 29.99,10.6 43.19,27.14l34.03 42.64zm-54.76 13.9l-36.32 45.51c-16.48,20.47 -35.05,44.58 -40.45,62.5 -7.36,24.42 6.74,48.73 30.88,56 3.48,1.05 9.52,2.19 13.52,2.03 19.3,-0.73 35.65,-12.48 42.12,-29.23 2.06,-5.33 3.38,-11.09 3.15,-17.26 -0.46,-12.13 -6.32,-24.28 -12.5,-34.16 -4.8,-7.68 -10.12,-14.34 -14.54,-19.6l-0.13 -0.16 14.45 -18.36c6.59,8.36 13.3,17.26 19.07,26.33 5.81,9.33 10.46,18.33 13.1,26.54l0.03 0.09c7.91,24.92 0.93,48.77 -13.99,65.34 -5.54,6.15 -12.16,11.36 -19.52,15.21 -9.79,5.12 -20.89,7.88 -32.35,7.73 -6.22,-0.09 -12.52,-0.91 -18.84,-2.82 -6.23,-1.88 -12.08,-4.56 -17.36,-7.94 -7.3,-4.68 -13.58,-10.68 -18.63,-17.58 -8.67,-11.83 -13.7,-26.26 -13.11,-41.64 0.21,-5.52 1.17,-11.27 2.94,-17.17 7.5,-24.89 34.11,-57.47 55.98,-84.25l42.69 -53.95c11.11,14.16 22.16,28.14 33.49,42.12 9.24,11.41 18.47,23.19 26.63,35.59 11.02,16.75 20.37,34.28 24.75,54.01 10.01,45.03 -4.6,89.58 -40.68,118.63 -31.21,25.13 -73.27,33.96 -111.76,22.36 -25.36,-7.64 -47.62,-23.32 -63.28,-44.68 -15.74,-21.46 -23.99,-47.96 -22.97,-74.58 0.39,-10.26 2.09,-20.42 5.05,-30.25 7.62,-25.27 24.87,-50.28 40.77,-71.14 0.1,-0.13 0.19,-0.24 0.29,-0.37l48.87 -61.47c4.24,-5.33 9.97,-8.28 16.77,-8.63 3,-0.15 6,-0.09 9.01,-0.09 3.81,0 6.86,0.03 10.6,0l-67.31 84.45c-16.15,21.2 -30.93,43.56 -37.05,63.86 -2.45,8.13 -3.78,16.35 -4.09,24.52 -0.85,22.2 6.09,43.15 18.55,60.14 8.23,11.22 18.81,20.79 31.2,27.77 6.3,3.54 13.1,6.38 20.21,8.52 16.77,5.05 34.05,5.38 50.21,1.58 13.45,-3.16 26.15,-9.21 37.12,-17.46 10.61,-7.97 19.52,-18.27 26.16,-30.02 10.76,-19.03 15.7,-42.23 9.96,-68.18 -3.82,-16.85 -12,-32.11 -21.53,-46.38 -12.2,-18.74 -27.85,-35.6 -41.14,-53.48zm-19.14 111.01c0.77,1.79 1.44,3.59 1.99,5.4 0.98,3.25 0.95,6.38 0.05,9.16 -1.28,3.93 -4.24,7.17 -7.87,9.11 -1.82,0.97 -3.84,1.6 -5.93,1.84 -1.94,0.22 -3.95,0.14 -5.94,-0.39 -1.96,-0.52 -3.78,-1.35 -5.4,-2.44 -1.85,-1.24 -3.36,-2.9 -4.58,-4.73 -1.02,-1.54 -1.76,-3.24 -2.18,-5.11 -0.23,-1.03 -0.42,-2.11 -0.38,-3.24 0.22,-5.72 5.07,-14.82 8.18,-19.78 2.62,-4.18 5.54,-8.11 8.32,-11.61l0.33 0.42c4.86,6.16 10.07,13.61 13.42,21.37z"/>
   <path class="fil1" d="M61.31 424.19c-37.75,0 -61.31,23.02 -61.31,70.67 0,47.65 23.56,70.67 61.31,70.67l29.71 0c37.48,0 61.31,-23.02 61.31,-70.67 0,-47.65 -23.83,-70.67 -61.31,-70.67l-29.71 0zm27.04 27.31c24.36,0 35.34,12.85 35.34,43.37 0,30.52 -10.98,43.1 -35.34,43.1l-24.36 0c-24.63,0 -35.34,-12.58 -35.34,-43.1 0,-30.52 10.71,-43.37 35.34,-43.37l24.36 0zm103.6 -27.31l0 27.31 84.6 0c15.53,0 21.69,8.56 21.69,19.54l0 10.71 -67.19 0c-34.8,0 -47.65,14.99 -47.65,40.69 0,26.77 13.92,43.1 47.38,43.1l66.12 0c23.83,0 29.18,-8.03 29.18,-28.38l0 -66.39c0,-26.77 -13.92,-46.58 -49.26,-46.58l-84.86 0zm98.52 113.77l-59.43 0c-14.19,0 -19.81,-6.69 -19.81,-17.13 0,-10.44 5.35,-16.6 20.35,-16.6l66.66 0 0 26.5c0,5.09 -2.14,7.23 -7.76,7.23zm115.11 -113.77c-32.93,0 -46.05,15.79 -46.05,41.23 0,21.69 9.64,41.23 48.72,41.23l33.46 0c14.19,0 20.08,4.55 20.08,15.79 0,10.98 -5.35,15.53 -18.47,15.53l-82.19 0 0 27.58 82.19 0c33.19,0 46.31,-17.67 46.31,-42.83 0,-21.95 -9.91,-39.89 -48.99,-39.89l-33.19 0c-15.79,0 -20.08,-5.35 -20.08,-15.26 0,-10.71 5.35,-16.06 18.47,-16.06l78.17 0 0 -27.31 -78.44 0zm117.52 0l0 141.35 28.38 0 0 -141.35 -28.38 0zm108.42 0c-32.93,0 -46.04,15.79 -46.04,41.23 0,21.69 9.64,41.23 48.72,41.23l33.46 0c14.19,0 20.08,4.55 20.08,15.79 0,10.98 -5.35,15.53 -18.47,15.53l-82.19 0 0 27.58 82.19 0c33.19,0 46.31,-17.67 46.31,-42.83 0,-21.95 -9.9,-39.89 -48.99,-39.89l-33.2 0c-15.79,0 -20.08,-5.35 -20.08,-15.26 0,-10.71 5.35,-16.06 18.47,-16.06l78.17 0 0 -27.31 -78.44 0z"/>
   <path class="fil0" d="M44.35 626.21c1.01,0 1.83,0.82 1.83,1.83 0,0.25 -0.05,0.49 -0.13,0.7 -1.64,4.47 -5.93,7.46 -10.69,7.46l-10.9 0c-6.27,0 -11.38,-5.1 -11.38,-11.37l0 -8.1c0,-6.28 5.1,-11.38 11.38,-11.38l10.9 0c4.8,0 9.11,3.04 10.72,7.57 0.34,0.95 -0.16,2 -1.12,2.33 -0.95,0.34 -2,-0.16 -2.33,-1.11 -1.09,-3.07 -4.02,-5.13 -7.27,-5.13l-10.9 0c-4.26,0 -7.72,3.47 -7.72,7.72l0 8.1c0,4.26 3.47,7.72 7.72,7.72l10.9 0c3.25,0 6.17,-2.06 7.27,-5.12 0.26,-0.73 0.95,-1.22 1.72,-1.22zm69.05 -3.77c2.27,1.6 3.65,4.21 3.65,7.04l0 4.89c0,1.01 -0.82,1.83 -1.83,1.83 -1.01,0 -1.83,-0.82 -1.83,-1.83l0 -4.89c0,-2.74 -2.23,-4.97 -4.97,-4.97l-14.32 0 0 9.87c0,1.01 -0.82,1.83 -1.83,1.83 -1.01,0 -1.83,-0.82 -1.83,-1.83l0 -11.7c0,-1.01 0.82,-1.83 1.83,-1.83l15.2 0c3.27,0 5.92,-2.66 5.92,-5.93 0,-3.26 -2.66,-5.92 -5.92,-5.92l-15.2 0c-1.01,0 -1.83,-0.82 -1.83,-1.83 0,-1.01 0.82,-1.83 1.83,-1.83l15.2 0c5.28,0 9.58,4.29 9.58,9.58 0,2.96 -1.37,5.71 -3.65,7.52zm68.74 12.57c-0.02,0.04 -0.03,0.08 -0.05,0.11 -0.02,0.04 -0.04,0.07 -0.06,0.11 -0.01,0.01 -0.01,0.02 -0.02,0.04 -0.08,0.13 -0.15,0.24 -0.23,0.32 -0.04,0.06 -0.08,0.09 -0.19,0.19 -0.1,0.08 -0.21,0.15 -0.32,0.21 -0.09,0.06 -0.18,0.11 -0.29,0.13 -0.19,0.05 -0.37,0.09 -0.56,0.09 -0.19,0 -0.36,-0.03 -0.54,-0.08 -0.06,-0.01 -0.12,-0.04 -0.18,-0.07 -0.04,-0.02 -0.07,-0.04 -0.11,-0.06 -0.12,-0.06 -0.24,-0.14 -0.39,-0.27 -0.05,-0.05 -0.09,-0.08 -0.11,-0.11 -0.11,-0.11 -0.18,-0.22 -0.26,-0.35 -0.01,-0.01 -0.01,-0.02 -0.02,-0.03 -0.02,-0.04 -0.05,-0.07 -0.07,-0.11 -0.02,-0.04 -0.04,-0.07 -0.05,-0.11l-9.86 -25.84c-0.08,-0.17 -0.24,-0.18 -0.39,-0.16 -0.21,0.03 -0.31,0.14 -0.34,0.35l-3.15 25.24c-0.13,1.01 -1.03,1.71 -2.04,1.59 -1,-0.12 -1.72,-1.04 -1.59,-2.04l3.15 -25.25c0.23,-1.81 1.6,-3.22 3.4,-3.5 1.8,-0.28 3.54,0.65 4.33,2.35l8.21 21.5 8.2 -21.48c0.77,-1.68 2.5,-2.66 4.34,-2.37 1.8,0.28 3.17,1.69 3.4,3.5l3.16 25.25c0.13,1.01 -0.58,1.91 -1.59,2.04 -1,0.13 -1.92,-0.58 -2.05,-1.59l-3.16 -25.24c-0.02,-0.19 -0.12,-0.31 -0.34,-0.34 -0.2,-0.03 -0.33,0.03 -0.4,0.19l-9.85 25.81zm69.35 -15.64c1.01,0 1.83,0.82 1.83,1.83 0,1.01 -0.82,1.83 -1.83,1.83l-5.85 0c-1.01,0 -1.83,-0.81 -1.83,-1.83 0,-1.01 0.82,-1.83 1.83,-1.83l5.85 0zm69.67 -0.43c4.52,0 8.19,3.67 8.19,8.19l0 0.89c0,4.51 -3.67,8.18 -8.19,8.18l-15.38 0c-4.51,0 -8.18,-3.67 -8.18,-8.18l0 -0.89c0,-1.01 0.82,-1.83 1.83,-1.83 1.01,0 1.83,0.82 1.83,1.83l0 0.89c0,2.49 2.03,4.52 4.52,4.52l15.38 0c2.49,0 4.53,-2.03 4.53,-4.52l0 -0.89c0,-2.5 -2.03,-4.53 -4.53,-4.53l-14.42 0c-4.51,0 -8.19,-3.67 -8.19,-8.18l0 -0.9c0,-4.51 3.67,-8.18 8.19,-8.18l12.51 0c4.51,0 8.18,3.67 8.18,8.18 0,1.01 -0.82,1.83 -1.83,1.83 -1.01,0 -1.83,-0.82 -1.83,-1.83 0,-2.49 -2.03,-4.52 -4.52,-4.52l-12.51 0c-2.49,0 -4.53,2.03 -4.53,4.52l0 0.9c0,2.5 2.03,4.52 4.53,4.52l14.42 0zm68.4 4.29l0 11.14c0,1.01 -0.81,1.83 -1.83,1.83 -1.01,0 -1.83,-0.82 -1.83,-1.83l0 -11.14 -11.91 -14.91c-0.63,-0.79 -0.5,-1.94 0.29,-2.57 0.79,-0.63 1.95,-0.5 2.57,0.29l10.88 13.62 10.87 -13.62c0.63,-0.79 1.79,-0.92 2.57,-0.29 0.79,0.63 0.92,1.79 0.29,2.57l-11.91 14.91zm78.76 -4.29c4.52,0 8.19,3.67 8.19,8.19l0 0.89c0,4.51 -3.67,8.18 -8.19,8.18l-15.38 0c-4.51,0 -8.18,-3.67 -8.18,-8.18l0 -0.89c0,-1.01 0.82,-1.83 1.83,-1.83 1.01,0 1.83,0.82 1.83,1.83l0 0.89c0,2.49 2.03,4.52 4.52,4.52l15.38 0c2.49,0 4.53,-2.03 4.53,-4.52l0 -0.89c0,-2.5 -2.03,-4.53 -4.53,-4.53l-14.42 0c-4.51,0 -8.19,-3.67 -8.19,-8.18l0 -0.9c0,-4.51 3.67,-8.18 8.19,-8.18l12.51 0c4.51,0 8.18,3.67 8.18,8.18 0,1.01 -0.82,1.83 -1.83,1.83 -1.01,0 -1.83,-0.82 -1.83,-1.83 0,-2.49 -2.03,-4.52 -4.52,-4.52l-12.51 0c-2.49,0 -4.53,2.03 -4.53,4.52l0 0.9c0,2.5 2.03,4.52 4.53,4.52l14.42 0zm64.61 -6.92c1.01,0 1.83,0.82 1.83,1.83l0 20.51c0,1.01 -0.82,1.83 -1.83,1.83 -1.01,0 -1.83,-0.82 -1.83,-1.83l0 -20.51c0,-1.01 0.82,-1.83 1.83,-1.83zm13.07 -6.68c1.01,0 1.83,0.82 1.83,1.83 0,1.01 -0.82,1.83 -1.83,1.83l-26.13 0c-1.01,0 -1.83,-0.82 -1.83,-1.83 0,-1.01 0.82,-1.83 1.83,-1.83l26.13 0zm72.17 27.2c1.01,0 1.83,0.82 1.83,1.83 0,1.01 -0.82,1.83 -1.83,1.83l-18.54 0c-4.17,0 -7.56,-3.39 -7.56,-7.56l0 -15.74c0,-4.17 3.39,-7.56 7.56,-7.56l16.63 0c1.01,0 1.83,0.82 1.83,1.83 0,1.01 -0.83,1.83 -1.83,1.83l-16.63 0c-2.15,0 -3.9,1.75 -3.9,3.9l0 15.74c0,2.15 1.75,3.9 3.9,3.9l18.54 0zm-17.58 -13.6l8.76 0c1.01,0 1.83,0.82 1.83,1.83 0,1.01 -0.82,1.83 -1.83,1.83l-8.76 0c-1.01,0 -1.83,-0.82 -1.83,-1.83 0,-1.01 0.82,-1.83 1.83,-1.83zm84.5 16.07c-0.01,0.04 -0.03,0.08 -0.05,0.11 -0.02,0.04 -0.04,0.07 -0.06,0.11 -0.01,0.01 -0.01,0.02 -0.02,0.04 -0.08,0.13 -0.15,0.24 -0.23,0.32 -0.05,0.06 -0.08,0.09 -0.19,0.19 -0.1,0.08 -0.21,0.15 -0.32,0.21 -0.09,0.06 -0.18,0.11 -0.29,0.13 -0.18,0.05 -0.36,0.09 -0.56,0.09 -0.19,0 -0.36,-0.03 -0.54,-0.08 -0.06,-0.01 -0.12,-0.04 -0.18,-0.07 -0.04,-0.02 -0.07,-0.04 -0.11,-0.06 -0.12,-0.06 -0.24,-0.14 -0.39,-0.27 -0.05,-0.05 -0.09,-0.08 -0.11,-0.11 -0.11,-0.11 -0.18,-0.22 -0.26,-0.35 -0.01,-0.01 -0.01,-0.02 -0.02,-0.03 -0.02,-0.04 -0.05,-0.07 -0.07,-0.11 -0.02,-0.04 -0.04,-0.07 -0.05,-0.11l-9.86 -25.84c-0.08,-0.17 -0.24,-0.18 -0.39,-0.16 -0.21,0.03 -0.31,0.14 -0.34,0.35l-3.15 25.24c-0.13,1.01 -1.03,1.71 -2.04,1.59 -1,-0.12 -1.72,-1.04 -1.59,-2.04l3.15 -25.25c0.22,-1.81 1.6,-3.22 3.4,-3.5 1.8,-0.28 3.54,0.65 4.33,2.35l8.21 21.5 8.2 -21.48c0.77,-1.68 2.5,-2.66 4.33,-2.37 1.8,0.28 3.17,1.69 3.4,3.5l3.16 25.25c0.13,1.01 -0.58,1.91 -1.59,2.04 -1,0.13 -1.92,-0.58 -2.04,-1.59l-3.16 -25.24c-0.02,-0.19 -0.12,-0.31 -0.34,-0.34 -0.2,-0.03 -0.32,0.03 -0.4,0.19l-9.85 25.81z"/>
  </g>
 </g>
</svg>
