<?xml version="1.0" encoding="UTF-8"?>
<!DOCTYPE svg PUBLIC "-//W3C//DTD SVG 1.1//EN" "http://www.w3.org/Graphics/SVG/1.1/DTD/svg11.dtd">
<!-- Creator: CorelDRAW 2020 (64-Bit) -->
<svg xmlns="http://www.w3.org/2000/svg" xml:space="preserve" width="297mm" height="210mm" version="1.1" style="shape-rendering:geometricPrecision; text-rendering:geometricPrecision; image-rendering:optimizeQuality; fill-rule:evenodd; clip-rule:evenodd"
viewBox="0 0 29700 21000"
 xmlns:xlink="http://www.w3.org/1999/xlink"
 xmlns:xodm="http://www.corel.com/coreldraw/odm/2003">
 <defs>
  <style type="text/css">
   <![CDATA[
    .fil2 {fill:#1A1A1A}
    .fil1 {fill:#1A1A1A;fill-rule:nonzero}
    .fil0 {fill:url(#id0)}
   ]]>
  </style>
  <linearGradient id="id0" gradientUnits="userSpaceOnUse" x1="13963.95" y1="10605.58" x2="15783.73" y2="9265.16">
   <stop offset="0" style="stop-opacity:1; stop-color:#4A32E3"/>
   <stop offset="1" style="stop-opacity:1; stop-color:#875FDA"/>
  </linearGradient>
 </defs>
 <g id="Слой_x0020_1">
  <metadata id="CorelCorpID_0Corel-Layer"/>
  <g id="_2494199196208">
   <path class="fil0" d="M15459.11 8780.92l0.54 0.74c67.33,90.54 141.44,177.25 203.53,271.6 90.42,137.4 164.3,280.31 200.25,441.95 86.06,386.98 -42.35,773.7 -352.39,1023.35 -268.24,215.98 -629.09,290.7 -959.63,191.08 -217.7,-65.61 -408.76,-200.25 -543.23,-383.66 -135.62,-184.97 -206.93,-414.7 -198.11,-644.03 3.38,-88.18 17.98,-175.71 43.44,-260.2 61.11,-202.75 188.56,-391.04 315.94,-558.2 1.48,-1.94 2.99,-3.87 4.51,-5.8l340.23 -427.95c64.94,-81.68 157.63,-129.36 261.84,-134.69 53.24,-2.73 89.49,-2.79 145.47,0 138.18,6.88 208.81,73.79 300.72,188.96l236.89 296.85zm-381.26 96.75l-252.85 316.84c-114.72,142.54 -244.02,310.39 -281.62,435.16 -51.22,169.99 46.96,339.23 214.97,389.87 24.25,7.31 66.28,15.22 94.1,14.16 134.35,-5.06 248.18,-86.86 293.27,-203.49 14.33,-37.09 23.55,-77.22 21.91,-120.14 -3.24,-84.47 -44.01,-169.05 -87.03,-237.82 -33.44,-53.45 -70.45,-99.81 -101.23,-136.42l-0.95 -1.11 100.62 -127.85c45.85,58.17 92.6,120.13 132.74,183.28 40.45,64.96 72.78,127.63 91.22,184.77l0.21 0.62c55.06,173.46 6.47,339.5 -97.43,454.89 -38.58,42.84 -84.64,79.07 -135.9,105.86 -68.17,35.62 -145.45,54.87 -225.24,53.79 -43.32,-0.59 -87.18,-6.36 -131.18,-19.62 -43.39,-13.08 -84.08,-31.72 -120.89,-55.3 -50.84,-32.55 -94.54,-74.36 -129.73,-122.35 -60.36,-82.35 -95.4,-182.83 -91.28,-289.91 1.48,-38.47 8.13,-78.49 20.49,-119.51 52.23,-173.31 237.48,-400.12 389.75,-586.55l297.23 -375.59c77.35,98.59 154.29,195.88 233.14,293.25 64.33,79.43 128.59,161.45 185.39,247.75 76.76,116.65 141.79,238.66 172.33,376 69.73,313.52 -32.02,623.64 -283.19,825.88 -217.25,174.93 -510.12,236.44 -778.08,155.68 -176.53,-53.21 -331.5,-162.34 -440.54,-311.06 -109.56,-149.41 -167.02,-333.88 -159.9,-519.18 2.76,-71.42 14.54,-142.18 35.17,-210.61 53.02,-175.94 173.14,-350.02 283.8,-495.23 0.7,-0.92 1.3,-1.69 2.01,-2.59l340.22 -427.95c29.53,-37.15 69.39,-57.65 116.78,-60.07 20.88,-1.07 41.78,-0.63 62.69,-0.63 26.51,0 47.75,0.2 73.8,0l-468.58 587.95c-112.45,147.58 -215.34,303.26 -257.93,444.57 -17.05,56.59 -26.3,113.83 -28.49,170.69 -5.95,154.55 42.41,300.43 129.12,418.69 57.3,78.15 130.95,144.72 217.19,193.3 43.82,24.69 91.22,44.41 140.71,59.33 116.76,35.18 237.01,37.46 349.57,11.02 93.66,-21.99 182.03,-64.12 258.42,-121.52 73.87,-55.51 135.9,-127.16 182.16,-208.98 74.92,-132.49 109.29,-294.01 69.3,-474.65 -26.62,-117.31 -83.56,-223.54 -149.86,-322.92 -84.95,-130.45 -193.89,-247.82 -286.41,-372.3zm-133.28 772.8c5.36,12.44 10.04,25 13.83,37.58 6.82,22.65 6.63,44.41 0.33,63.74 -8.92,27.37 -29.54,49.92 -54.8,63.4 -12.67,6.75 -26.75,11.12 -41.3,12.81 -13.49,1.56 -27.48,0.96 -41.35,-2.71 -13.61,-3.61 -26.34,-9.42 -37.6,-17 -12.86,-8.66 -23.42,-20.18 -31.88,-32.93 -7.09,-10.69 -12.25,-22.59 -15.16,-35.56 -1.61,-7.18 -2.95,-14.65 -2.65,-22.54 1.51,-39.8 35.3,-103.15 56.97,-137.67 18.27,-29.1 38.54,-56.48 57.89,-80.85l2.33 2.94c33.84,42.88 70.11,94.75 93.39,148.79z"/>
   <path class="fil1" d="M12785.41 11245.16c-262.78,0 -426.79,160.28 -426.79,492.02 0,331.74 164.01,492.02 426.79,492.02l206.87 0c260.92,0 426.79,-160.28 426.79,-492.02 0,-331.74 -165.87,-492.02 -426.79,-492.02l-206.87 0zm188.24 190.1c169.59,0 246,89.46 246,301.92 0,212.46 -76.41,300.06 -246,300.06l-169.6 0c-171.46,0 -246.01,-87.6 -246.01,-300.06 0,-212.46 74.55,-301.92 246.01,-301.92l169.6 0zm721.25 -190.1l0 190.1 588.93 0c108.1,0 150.96,59.64 150.96,136.05l0 74.55 -467.79 0c-242.28,0 -331.74,104.36 -331.74,283.28 0,186.38 96.92,300.06 329.88,300.06l460.33 0c165.87,0 203.15,-55.91 203.15,-197.55l0 -462.2c0,-186.37 -96.91,-324.29 -342.92,-324.29l-590.8 0zm685.84 792.08l-413.74 0c-98.78,0 -137.91,-46.59 -137.91,-119.28 0,-72.68 37.27,-115.55 141.64,-115.55l464.06 0 0 184.51c0,35.41 -14.91,50.32 -54.05,50.32zm801.4 -792.08c-229.24,0 -320.56,109.96 -320.56,287.01 0,150.96 67.09,287.01 339.2,287.01l232.96 0c98.78,0 139.78,31.69 139.78,109.96 0,76.41 -37.28,108.1 -128.6,108.1l-572.16 0 0 191.96 572.16 0c231.1,0 322.42,-123 322.42,-298.19 0,-152.83 -68.96,-277.69 -341.06,-277.69l-231.1 0c-109.95,0 -139.77,-37.28 -139.77,-106.24 0,-74.55 37.27,-111.82 128.59,-111.82l544.2 0 0 -190.1 -546.06 0zm818.17 0l0 984.04 197.55 0 0 -984.04 -197.55 0zm754.8 0c-229.24,0 -320.56,109.96 -320.56,287.01 0,150.96 67.09,287.01 339.19,287.01l232.96 0c98.78,0 139.78,31.69 139.78,109.96 0,76.41 -37.27,108.1 -128.59,108.1l-572.16 0 0 191.96 572.16 0c231.1,0 322.42,-123 322.42,-298.19 0,-152.83 -68.96,-277.69 -341.06,-277.69l-231.1 0c-109.96,0 -139.78,-37.28 -139.78,-106.24 0,-74.55 37.28,-111.82 128.6,-111.82l544.2 0 0 -190.1 -546.06 0z"/>
   <path class="fil2" d="M12667.41 12651.6c7.03,0 12.75,5.73 12.75,12.76 0,1.72 -0.35,3.42 -0.93,4.89 -11.42,31.1 -41.26,51.92 -74.4,51.92l-75.9 0c-43.68,0 -79.23,-35.5 -79.23,-79.19l0 -56.4c0,-43.7 35.53,-79.23 79.23,-79.23l75.9 0c33.44,0 63.44,21.17 74.65,52.67 2.36,6.63 -1.13,13.92 -7.76,16.27 -6.63,2.33 -13.9,-1.14 -16.25,-7.77 -7.58,-21.37 -27.97,-35.7 -50.64,-35.7l-75.9 0c-29.64,0 -53.76,24.12 -53.76,53.76l0 56.36c0,29.63 24.12,53.76 53.76,53.76l75.9 0c22.64,0 42.95,-14.35 50.6,-35.63 1.82,-5.06 6.6,-8.47 11.98,-8.47zm480.68 -26.26c15.78,11.13 25.43,29.31 25.43,49l0 34.07c0,7.03 -5.69,12.71 -12.72,12.71 -7.02,0 -12.75,-5.67 -12.75,-12.71l0 -34.07c0,-19.06 -15.54,-34.59 -34.6,-34.59l-99.71 0 0 68.71c0,7.03 -5.68,12.76 -12.72,12.76 -7.05,0 -12.75,-5.71 -12.75,-12.76l0 -81.47c0,-7.01 5.75,-12.71 12.75,-12.71l105.8 0c22.75,0 41.23,-18.54 41.23,-41.28 0,-22.72 -18.51,-41.23 -41.23,-41.23l-105.8 0c-7.05,0 -12.75,-5.71 -12.75,-12.76 0,-7.01 5.75,-12.71 12.75,-12.71l105.8 0c36.79,0 66.7,29.91 66.7,66.7 0,20.64 -9.54,39.79 -25.43,52.34zm478.56 87.5c-0.09,0.28 -0.21,0.55 -0.35,0.81 -0.12,0.26 -0.26,0.5 -0.42,0.75 -0.05,0.08 -0.09,0.16 -0.14,0.25 -0.55,0.92 -1.03,1.67 -1.61,2.25 -0.32,0.38 -0.56,0.59 -1.29,1.28 -0.7,0.57 -1.45,1.05 -2.24,1.46 -0.61,0.42 -1.27,0.73 -2.02,0.91 -1.28,0.38 -2.54,0.62 -3.87,0.62 -1.31,0 -2.53,-0.23 -3.77,-0.59 -0.43,-0.09 -0.84,-0.24 -1.26,-0.45 -0.26,-0.13 -0.51,-0.28 -0.75,-0.43 -0.84,-0.43 -1.68,-0.98 -2.73,-1.86 -0.36,-0.35 -0.6,-0.56 -0.73,-0.75 -0.76,-0.77 -1.25,-1.52 -1.8,-2.44 -0.05,-0.09 -0.09,-0.17 -0.12,-0.22 -0.16,-0.26 -0.32,-0.52 -0.45,-0.8 -0.13,-0.25 -0.25,-0.51 -0.34,-0.79l-68.66 -179.91c-0.56,-1.18 -1.66,-1.23 -2.69,-1.09 -1.43,0.23 -2.17,0.97 -2.35,2.42l-21.96 175.75c-0.88,7.02 -7.19,11.91 -14.2,11.07 -6.98,-0.84 -11.96,-7.26 -11.09,-14.22l21.96 -175.8c1.56,-12.57 11.15,-22.42 23.67,-24.37 12.54,-1.95 24.66,4.51 30.13,16.37l57.14 149.67 57.09 -149.53c5.38,-11.71 17.38,-18.5 30.17,-16.51 12.53,1.96 22.11,11.77 23.68,24.37l22 175.8c0.88,7 -4.06,13.32 -11.05,14.22 -6.99,0.89 -13.36,-4.08 -14.24,-11.07l-22 -175.75c-0.16,-1.3 -0.84,-2.17 -2.36,-2.37 -1.39,-0.22 -2.26,0.21 -2.78,1.31l-68.57 179.64zm482.8 -108.87c7.04,0 12.71,5.73 12.71,12.76 0,7.01 -5.7,12.71 -12.71,12.71l-40.76 0c-7.02,0 -12.75,-5.67 -12.75,-12.71 0,-7.06 5.7,-12.76 12.75,-12.76l40.76 0zm485.04 -2.97c31.45,0 57,25.55 57,57l0 6.22c0,31.43 -25.58,56.95 -57,56.95l-107.09 0c-31.41,0 -56.95,-25.55 -56.95,-56.95l0 -6.22c0,-7.03 5.73,-12.76 12.75,-12.76 7.02,0 12.72,5.75 12.72,12.76l0 6.22c0,17.34 14.14,31.48 31.48,31.48l107.09 0c17.36,0 31.53,-14.11 31.53,-31.48l0 -6.22c0,-17.38 -14.14,-31.53 -31.53,-31.53l-100.4 0c-31.43,0 -57,-25.52 -57,-56.95l0 -6.22c0,-31.43 25.57,-56.95 57,-56.95l87.12 0c31.41,0 56.96,25.54 56.96,56.95 0,7.02 -5.67,12.76 -12.71,12.76 -7.04,0 -12.77,-5.73 -12.77,-12.76 0,-17.34 -14.14,-31.48 -31.48,-31.48l-87.12 0c-17.36,0 -31.53,14.11 -31.53,31.48l0 6.22c0,17.39 14.15,31.48 31.53,31.48l100.4 0zm476.22 29.84l0 77.57c0,7.03 -5.67,12.76 -12.71,12.76 -7.05,0 -12.76,-5.7 -12.76,-12.76l0 -77.57 -82.93 -103.8c-4.39,-5.49 -3.48,-13.53 2.01,-17.92 5.48,-4.4 13.55,-3.48 17.93,2.01l75.75 94.82 75.7 -94.82c4.39,-5.5 12.45,-6.41 17.94,-2.01 5.48,4.39 6.4,12.43 2,17.92l-82.93 103.8zm548.28 -29.84c31.45,0 57,25.55 57,57l0 6.22c0,31.43 -25.58,56.95 -57,56.95l-107.1 0c-31.4,0 -56.95,-25.55 -56.95,-56.95l0 -6.22c0,-7.03 5.73,-12.76 12.76,-12.76 7.01,0 12.71,5.75 12.71,12.76l0 6.22c0,17.34 14.14,31.48 31.48,31.48l107.1 0c17.36,0 31.53,-14.11 31.53,-31.48l0 -6.22c0,-17.38 -14.15,-31.53 -31.53,-31.53l-100.41 0c-31.42,0 -57,-25.52 -57,-56.95l0 -6.22c0,-31.43 25.58,-56.95 57,-56.95l87.13 0c31.41,0 56.95,25.54 56.95,56.95 0,7.02 -5.67,12.76 -12.71,12.76 -7.03,0 -12.76,-5.73 -12.76,-12.76 0,-17.34 -14.14,-31.48 -31.48,-31.48l-87.13 0c-17.35,0 -31.53,14.11 -31.53,31.48l0 6.22c0,17.39 14.15,31.48 31.53,31.48l100.41 0zm449.81 -48.14c7.03,0 12.76,5.73 12.76,12.76l0 142.79c0,7.03 -5.73,12.76 -12.76,12.76 -7.03,0 -12.76,-5.73 -12.76,-12.76l0 -142.79c0,-7.03 5.73,-12.76 12.76,-12.76zm90.99 -46.51c7.03,0 12.7,5.73 12.7,12.75 0,7.01 -5.69,12.72 -12.7,12.72l-181.93 0c-7.01,0 -12.76,-5.7 -12.76,-12.72 0,-7.02 5.73,-12.75 12.76,-12.75l181.93 0zm502.45 189.35c7.01,0 12.76,5.7 12.76,12.71 0,7.03 -5.73,12.76 -12.76,12.76l-129.05 0c-29.03,0 -52.64,-23.59 -52.64,-52.63l0 -109.56c0,-29.04 23.61,-52.63 52.64,-52.63l115.77 0c7.03,0 12.77,5.73 12.77,12.75 0,7.02 -5.76,12.72 -12.77,12.72l-115.77 0c-14.97,0 -27.17,12.19 -27.17,27.16l0 109.56c0,14.97 12.2,27.16 27.17,27.16l129.05 0zm-122.41 -94.7l60.95 0c7.04,0 12.71,5.74 12.71,12.76 0,7.03 -5.68,12.71 -12.71,12.71l-60.95 0c-7.02,0 -12.76,-5.67 -12.76,-12.71 0,-7.03 5.72,-12.76 12.76,-12.76zm588.3 111.84c-0.1,0.28 -0.22,0.55 -0.35,0.81 -0.13,0.26 -0.27,0.5 -0.43,0.75 -0.04,0.08 -0.08,0.16 -0.13,0.25 -0.55,0.92 -1.04,1.67 -1.62,2.25 -0.31,0.38 -0.55,0.59 -1.29,1.28 -0.69,0.57 -1.44,1.05 -2.23,1.46 -0.62,0.42 -1.27,0.73 -2.03,0.91 -1.27,0.38 -2.53,0.62 -3.87,0.62 -1.31,0 -2.53,-0.23 -3.77,-0.59 -0.43,-0.09 -0.84,-0.24 -1.25,-0.45 -0.27,-0.13 -0.51,-0.28 -0.75,-0.43 -0.85,-0.43 -1.69,-0.98 -2.73,-1.86 -0.36,-0.35 -0.6,-0.56 -0.74,-0.75 -0.76,-0.77 -1.24,-1.52 -1.79,-2.44 -0.05,-0.09 -0.09,-0.17 -0.12,-0.22 -0.17,-0.26 -0.32,-0.52 -0.46,-0.8 -0.13,-0.25 -0.24,-0.51 -0.34,-0.79l-68.66 -179.91c-0.55,-1.18 -1.65,-1.23 -2.68,-1.09 -1.44,0.23 -2.17,0.97 -2.36,2.42l-21.96 175.75c-0.87,7.02 -7.18,11.91 -14.19,11.07 -6.98,-0.84 -11.97,-7.26 -11.1,-14.22l21.96 -175.8c1.57,-12.57 11.16,-22.42 23.67,-24.37 12.54,-1.95 24.66,4.51 30.13,16.37l57.14 149.67 57.09 -149.53c5.39,-11.71 17.38,-18.5 30.18,-16.51 12.53,1.96 22.1,11.77 23.67,24.37l22 175.8c0.88,7 -4.05,13.32 -11.04,14.22 -6.99,0.89 -13.37,-4.08 -14.24,-11.07l-22.01 -175.75c-0.16,-1.3 -0.83,-2.17 -2.36,-2.37 -1.38,-0.22 -2.26,0.21 -2.78,1.31l-68.56 179.64z"/>
  </g>
 </g>
</svg>
